<?xml version="1.0" standalone="no"?>
<!DOCTYPE svg PUBLIC "-//W3C//DTD SVG 20010904//EN"
 "http://www.w3.org/TR/2001/REC-SVG-20010904/DTD/svg10.dtd">
<svg version="1.0" xmlns="http://www.w3.org/2000/svg"
 width="226.000000pt" height="226.000000pt" viewBox="0 0 226.000000 226.000000"
 preserveAspectRatio="xMidYMid meet">
<metadata>
Created by potrace 1.11, written by Peter Selinger 2001-2013
</metadata>
<g transform="translate(0.000000,226.000000) scale(0.100000,-0.100000)"
fill="#000000" stroke="none">
<path d="M1661 1637 c-51 -20 -103 -68 -136 -128 -26 -47 -30 -64 -30 -129 0
-83 13 -116 70 -179 l34 -38 -86 -129 c-47 -71 -87 -131 -89 -133 -2 -2 -22 1
-44 8 -64 19 -124 16 -171 -8 -40 -21 -42 -21 -58 -4 -175 195 -192 216 -186
231 26 68 16 130 -31 182 -72 80 -197 89 -263 19 -53 -56 -77 -150 -52 -198 8
-14 -7 -36 -72 -113 -76 -89 -102 -109 -121 -91 -18 19 -96 19 -132 0 -54 -28
-83 -74 -88 -140 -10 -127 152 -210 252 -130 60 48 78 120 48 193 -4 9 8 31
30 55 19 22 50 58 67 79 36 44 57 66 62 66 3 0 23 -9 45 -21 56 -29 127 -29
175 1 l38 23 40 -44 c21 -24 55 -62 75 -84 19 -22 46 -52 59 -66 l25 -27 -23
-43 c-45 -87 -26 -199 47 -273 69 -68 189 -86 273 -41 121 66 166 248 86 343
-14 17 -25 34 -25 38 0 5 41 70 91 145 l91 137 31 -9 c114 -33 256 31 308 138
30 61 33 181 7 229 -25 47 -81 100 -130 125 -52 27 -166 35 -217 16z"/>
</g>
</svg>
